<?xml version="1.0" encoding="UTF-8" standalone="no"?>
<!-- Created with Inkscape (http://www.inkscape.org/) -->

<svg
   width="210.00002mm"
   height="46.930466mm"
   viewBox="0 0 210.00002 46.930466"
   version="1.1"
   id="svg1"
   xmlns="http://www.w3.org/2000/svg"
   xmlns:svg="http://www.w3.org/2000/svg">
  <defs
     id="defs1">
    <rect
       x="56.060799"
       y="92.565498"
       width="110.81786"
       height="63.883232"
       id="rect1" />
  </defs>
  <g
     id="layer1">
    <path
       d="m 62.902977,104.13539 h -1.30859 l -1.269528,-2.72135 q -0.143229,-0.3125 -0.292968,-0.51432 -0.149739,-0.20833 -0.32552,-0.32552 -0.16927,-0.1237 -0.377603,-0.17578 -0.201823,-0.0521 -0.455728,-0.0521 h -0.546874 v 3.78906 h -1.158851 v -8.509096 h 2.27864 q 0.742186,0 1.276038,0.16276 0.533853,0.16276 0.872394,0.455728 0.345051,0.292968 0.501301,0.709634 0.16276,0.410155 0.16276,0.911456 0,0.397134 -0.117187,0.755206 -0.117188,0.351562 -0.351562,0.64453 -0.227864,0.286458 -0.572915,0.501301 -0.338541,0.208333 -0.781248,0.312501 0.358072,0.1237 0.605467,0.43619 0.253906,0.30599 0.514322,0.82032 z m -1.855464,-6.171862 q 0,-0.683592 -0.429686,-1.022133 -0.423176,-0.338541 -1.197914,-0.338541 h -1.093747 v 2.812493 h 0.937498 q 0.410155,0 0.735675,-0.09114 0.33203,-0.09766 0.559894,-0.279948 0.234375,-0.188801 0.358072,-0.455728 0.130208,-0.273436 0.130208,-0.624998 z m 5.611965,0.572915 h -1.933589 v -0.937497 h 3.07942 v 5.592434 h 1.946609 v 0.94401 h -5.240872 v -0.94401 h 2.148432 z m 0.397135,-3.678376 q 0.188801,0 0.351561,0.07161 0.16276,0.0651 0.279947,0.188801 0.123698,0.123698 0.188802,0.286458 0.07161,0.156249 0.07161,0.345051 0,0.182291 -0.07161,0.345051 -0.0651,0.16276 -0.188802,0.286458 -0.117187,0.123697 -0.279947,0.195312 -0.16276,0.0651 -0.351561,0.0651 -0.188802,0 -0.351562,-0.0651 -0.16276,-0.07162 -0.286458,-0.195312 -0.117187,-0.123698 -0.188801,-0.286458 -0.0651,-0.16276 -0.0651,-0.345051 0,-0.188802 0.0651,-0.345051 0.07161,-0.16276 0.188801,-0.286458 0.123698,-0.123697 0.286458,-0.188801 0.16276,-0.07161 0.351562,-0.07161 z m 10.371067,6.888003 h -1.451819 l -0.240885,2.38932 h -0.963539 l 0.240884,-2.38932 h -1.660152 l -0.240884,2.38932 h -0.96354 l 0.240885,-2.38932 h -1.386715 v -0.84635 h 1.47135 l 0.234375,-2.278642 h -1.373695 v -0.846352 h 1.45833 l 0.221354,-2.148432 h 0.950518 l -0.214843,2.148432 h 1.666662 l 0.221354,-2.148432 h 0.963539 l -0.227864,2.148432 h 1.399736 v 0.846352 H 76.28836 l -0.227864,2.278642 h 1.367184 z m -2.324213,-0.84635 0.227864,-2.278642 h -1.666662 l -0.227864,2.278642 z m 6.562482,1.18489 q 0.221354,0 0.416666,0.0846 0.201822,0.0846 0.345051,0.23437 0.149739,0.14974 0.234375,0.35156 0.08463,0.19531 0.08463,0.42318 0,0.22135 -0.08463,0.41666 -0.08464,0.19532 -0.234375,0.34506 -0.143229,0.14322 -0.345051,0.22786 -0.195312,0.0846 -0.416666,0.0846 -0.227864,0 -0.423176,-0.0846 -0.195312,-0.0846 -0.345051,-0.22786 -0.143229,-0.14974 -0.227864,-0.34506 -0.08464,-0.19531 -0.08464,-0.41666 0,-0.22787 0.08464,-0.42318 0.08463,-0.20182 0.227864,-0.35156 0.149739,-0.14974 0.345051,-0.23437 0.195312,-0.0846 0.423176,-0.0846 z m 10.332006,-0.49479 q 0,0.61198 -0.240885,1.08724 -0.234374,0.46875 -0.677081,0.79427 -0.436197,0.32552 -1.061196,0.49479 -0.618488,0.16927 -1.380204,0.16927 h -2.226557 v -8.509096 h 2.434889 q 2.845045,0 2.845045,2.070308 0,0.690102 -0.33203,1.184892 -0.32552,0.494791 -1.067706,0.735676 0.345051,0.0651 0.65104,0.221353 0.3125,0.15625 0.546874,0.403647 0.234374,0.24739 0.371093,0.58593 0.136718,0.33854 0.136718,0.76172 z m -1.510413,-3.736969 q 0,-0.260416 -0.07813,-0.48828 -0.07812,-0.234374 -0.273436,-0.397134 -0.195312,-0.169271 -0.527343,-0.266927 -0.33203,-0.09766 -0.839841,-0.09766 h -1.197914 v 2.662754 h 1.158851 q 0.397135,0 0.716144,-0.08464 0.32552,-0.08463 0.553384,-0.260416 0.234375,-0.175781 0.358072,-0.436197 0.130208,-0.266926 0.130208,-0.631509 z m 0.279947,3.776029 q 0,-0.32552 -0.136718,-0.58593 -0.136718,-0.26042 -0.397134,-0.4362 -0.260416,-0.18229 -0.63802,-0.27995 -0.371092,-0.0977 -0.839841,-0.0977 h -1.184893 v 2.92968 h 1.223955 q 0.996091,0 1.484371,-0.3711 0.48828,-0.37109 0.48828,-1.15885 z m 8.43748,0.20183 q 0,0.60546 -0.247395,1.06119 -0.247396,0.45573 -0.690103,0.76172 -0.442707,0.29948 -1.067705,0.44922 -0.618488,0.14973 -1.367184,0.14973 -0.338541,0 -0.677082,-0.026 -0.33203,-0.026 -0.64453,-0.0651 -0.305988,-0.0391 -0.579425,-0.0911 -0.273437,-0.0521 -0.494791,-0.11067 v -1.11979 q 0.48828,0.18229 1.093748,0.28646 0.611977,0.10416 1.386715,0.10416 0.559894,0 0.950518,-0.0846 0.397135,-0.0911 0.64453,-0.26042 0.253905,-0.17578 0.364582,-0.42318 0.117187,-0.24739 0.117187,-0.5664 0,-0.34505 -0.195312,-0.58594 -0.188801,-0.24739 -0.5013,-0.43619 -0.3125,-0.19532 -0.716144,-0.35156 -0.397135,-0.16276 -0.8138,-0.33204 -0.416666,-0.16927 -0.820311,-0.364578 -0.397134,-0.201822 -0.709633,-0.468748 -0.3125,-0.273437 -0.507812,-0.63802 -0.188801,-0.364582 -0.188801,-0.865883 0,-0.436197 0.182291,-0.859373 0.182291,-0.423176 0.566405,-0.748696 0.384113,-0.33203 0.98307,-0.533852 0.605467,-0.201823 1.438799,-0.201823 0.214843,0 0.462238,0.01953 0.253906,0.01953 0.507811,0.05859 0.260416,0.03255 0.507811,0.07813 0.253906,0.04557 0.468749,0.09766 v 1.041664 q -0.501301,-0.143229 -1.002601,-0.214843 -0.501301,-0.07813 -0.97005,-0.07813 -0.996091,0 -1.46484,0.33203 -0.468749,0.332031 -0.468749,0.891925 0,0.345051 0.188802,0.592446 0.195312,0.247396 0.507811,0.442708 0.312499,0.195312 0.709634,0.358072 0.403644,0.156249 0.82031,0.32552 0.416666,0.16927 0.8138,0.371092 0.403645,0.201818 0.716144,0.481768 0.312499,0.27344 0.501301,0.64453 0.195312,0.37109 0.195312,0.87891 z"
       id="text1"
       style="font-size:13.3333px;line-height:1.25;font-family:'Consolas ligaturized v2';-inkscape-font-specification:'Consolas ligaturized v2';letter-spacing:0px;word-spacing:0px;white-space:pre;fill:#bf138f;stroke-width:0.0529642"
       transform="matrix(4.9955216,0,0,4.9955216,-285.58056,-473.86552)"
       aria-label="Ri#.BS" />
  </g>
</svg>
